<svg width="126" height="126" viewBox="0 0 126 126" fill="none" xmlns="http://www.w3.org/2000/svg">
<circle cx="62.8325" cy="62.8325" r="62.8325" fill="url(#paint0_linear_4741_2366)"/>
<path fill-rule="evenodd" clip-rule="evenodd" d="M63 35C71.2843 35 78 41.7157 78 50C78 54.2883 76.368 58.1582 73.6641 61H75C78.3137 61 81 63.6863 81 67C81 70.3137 78.3137 73 75 73H73.874C73.9562 73.6554 74 74.3228 74 75C74 81.6274 68.6274 87 62 87C55.3726 87 50 81.6274 50 75C50 74.3228 50.0438 73.6554 50.126 73H49C45.6863 73 43 70.3137 43 67C43 63.6863 45.6863 61 49 61H50.3359C47.632 58.1582 46 54.2883 46 50C46 41.7157 52.7157 35 61 35H63ZM63 41H61C56.0294 41 52 45.0294 52 50C52 54.9706 56.0294 59 61 59H63C67.9706 59 72 54.9706 72 50C72 45.0294 67.9706 41 63 41ZM75 65C76.1046 65 77 65.8954 77 67C77 68.1046 76.1046 69 75 69H49C47.8954 69 47 68.1046 47 67C47 65.8954 47.8954 65 49 65H75ZM62 71C66.4183 71 70 74.5817 70 79C70 83.4183 66.4183 87 62 87C57.5817 87 54 83.4183 54 79C54 74.5817 57.5817 71 62 71Z" fill="#577CFF"/>
<defs>
<linearGradient id="paint0_linear_4741_2366" x1="62.8325" y1="0" x2="62.8325" y2="125.665" gradientUnits="userSpaceOnUse">
<stop stop-color="#AFC1DC"/>
<stop offset="1" stop-color="#E2E5ED"/>
</linearGradient>
</defs>
</svg>