<svg width="126" height="126" viewBox="0 0 126 126" fill="none" xmlns="http://www.w3.org/2000/svg">
<circle cx="62.8325" cy="62.8325" r="62.8325" fill="url(#paint0_linear_4741_2365)"/>
<path d="M55 41C52.7909 41 51 42.7909 51 45V49H47C44.7909 49 43 50.7909 43 53V57C43 59.2091 44.7909 61 47 61H51V65C51 67.2091 52.7909 69 55 69H59V73C59 75.2091 60.7909 77 63 77C65.2091 77 67 75.2091 67 73V69H71C73.2091 69 75 67.2091 75 65V61H79C81.2091 61 83 59.2091 83 57V53C83 50.7909 81.2091 49 79 49H75V45C75 42.7909 73.2091 41 71 41H67V37C67 34.7909 65.2091 33 63 33C60.7909 33 59 34.7909 59 37V41H55Z" fill="#577CFF"/>
<path d="M63 45C65.7614 45 68 47.2386 68 50C68 52.7614 65.7614 55 63 55C60.2386 55 58 52.7614 58 50C58 47.2386 60.2386 45 63 45Z" fill="#577CFF"/>
<path d="M63 81C60.7909 81 59 82.7909 59 85V87C59 89.2091 60.7909 91 63 91C65.2091 91 67 89.2091 67 87V85C67 82.7909 65.2091 81 63 81Z" fill="#577CFF"/>
<defs>
<linearGradient id="paint0_linear_4741_2365" x1="62.8325" y1="0" x2="62.8325" y2="125.665" gradientUnits="userSpaceOnUse">
<stop stop-color="#AFC1DC"/>
<stop offset="1" stop-color="#E2E5ED"/>
</linearGradient>
</defs>
</svg>