<svg width="126" height="126" viewBox="0 0 126 126" fill="none" xmlns="http://www.w3.org/2000/svg">
<circle cx="62.8325" cy="62.8325" r="62.8325" fill="url(#paint0_linear_4741_2372)"/>
<path fill-rule="evenodd" clip-rule="evenodd" d="M71 35C74.3137 35 77 37.6863 77 41C77 44.3137 74.3137 47 71 47C69.8065 47 68.6932 46.6318 67.7686 46.0001C67.9170 46.6427 68 47.3124 68 48V63C68 72.9411 59.9411 81 50 81H46C44.8954 81 44 80.1046 44 79C44 77.8954 44.8954 77 46 77H50C57.7320 77 64 70.7320 64 63V48C64 44.6863 66.6863 42 70 42C70.5523 42 71 41.5523 71 41C71 40.4477 70.5523 40 70 40C69.4477 40 69 39.5523 69 39C69 38.4477 69.4477 38 70 38C70.5523 38 71 37.5523 71 37C71 36.4477 70.5523 36 70 36C67.7909 36 66 37.7909 66 40C66 42.2091 67.7909 44 70 44C72.2091 44 74 42.2091 74 40C74 37.7909 72.2091 36 70 36V35H71ZM71 39C71.5523 39 72 39.4477 72 40C72 40.5523 71.5523 41 71 41C70.4477 41 70 40.5523 70 40C70 39.4477 70.4477 39 71 39Z" fill="#577CFF"/>
<circle cx="82" cy="82" r="6" fill="#577CFF"/>
<defs>
<linearGradient id="paint0_linear_4741_2372" x1="62.8325" y1="0" x2="62.8325" y2="125.665" gradientUnits="userSpaceOnUse">
<stop stop-color="#AFC1DC"/>
<stop offset="1" stop-color="#E2E5ED"/>
</linearGradient>
</defs>
</svg>