<svg width="126" height="126" viewBox="0 0 126 126" fill="none" xmlns="http://www.w3.org/2000/svg">
<circle cx="62.8325" cy="62.8325" r="62.8325" fill="url(#paint0_linear_4741_2368)"/>
<path d="M63 35C72.9411 35 81 43.0589 81 53V57C81 66.9411 72.9411 75 63 75C53.0589 75 45 66.9411 45 57V53C45 43.0589 53.0589 35 63 35ZM63 41C56.3726 41 51 46.3726 51 53V57C51 63.6274 56.3726 69 63 69C69.6274 69 75 63.6274 75 57V53C75 46.3726 69.6274 41 63 41Z" fill="#577CFF"/>
<path d="M57 79C57 77.8954 57.8954 77 59 77H67C68.1046 77 69 77.8954 69 79V83H57V79Z" fill="#577CFF"/>
<path d="M53 83C53 81.8954 53.8954 81 55 81H71C72.1046 81 73 81.8954 73 83C73 84.1046 72.1046 85 71 85H55C53.8954 85 53 84.1046 53 83Z" fill="#577CFF"/>
<path d="M59 49C60.1046 49 61 49.8954 61 51C61 52.1046 60.1046 53 59 53C57.8954 53 57 52.1046 57 51C57 49.8954 57.8954 49 59 49Z" fill="#577CFF"/>
<path d="M67 49C68.1046 49 69 49.8954 69 51C69 52.1046 68.1046 53 67 53C65.8954 53 65 52.1046 65 51C65 49.8954 65.8954 49 67 49Z" fill="#577CFF"/>
<path d="M59 61H67C68.1046 61 69 60.1046 69 59C69 57.8954 68.1046 57 67 57H59C57.8954 57 57 57.8954 57 59C57 60.1046 57.8954 61 59 61Z" fill="#577CFF"/>
<defs>
<linearGradient id="paint0_linear_4741_2368" x1="62.8325" y1="0" x2="62.8325" y2="125.665" gradientUnits="userSpaceOnUse">
<stop stop-color="#AFC1DC"/>
<stop offset="1" stop-color="#E2E5ED"/>
</linearGradient>
</defs>
</svg>