<svg width="126" height="126" viewBox="0 0 126 126" fill="none" xmlns="http://www.w3.org/2000/svg">
<circle cx="62.8325" cy="62.8325" r="62.8325" fill="url(#paint0_linear_4741_2371)"/>
<path fill-rule="evenodd" clip-rule="evenodd" d="M63 35C74.0457 35 83 43.9543 83 55C83 64.2571 76.8853 72.0281 68.5 74.4937V81H73C74.1046 81 75 81.8954 75 83C75 84.1046 74.1046 85 73 85H53C51.8954 85 51 84.1046 51 83C51 81.8954 51.8954 81 53 81H57.5V74.4937C49.1147 72.0281 43 64.2571 43 55C43 43.9543 51.9543 35 63 35ZM63 41C55.268 41 49 47.268 49 55C49 62.732 55.268 69 63 69C70.732 69 77 62.732 77 55C77 47.268 70.732 41 63 41Z" fill="#577CFF"/>
<path d="M59 51C60.1046 51 61 51.8954 61 53C61 54.1046 60.1046 55 59 55C57.8954 55 57 54.1046 57 53C57 51.8954 57.8954 51 59 51Z" fill="#577CFF"/>
<path d="M67 51C68.1046 51 69 51.8954 69 53C69 54.1046 68.1046 55 67 55C65.8954 55 65 54.1046 65 53C65 51.8954 65.8954 51 67 51Z" fill="#577CFF"/>
<path d="M57 59C57 57.8954 57.8954 57 59 57H67C68.1046 57 69 57.8954 69 59C69 60.1046 68.1046 61 67 61H59C57.8954 61 57 60.1046 57 59Z" fill="#577CFF"/>
<defs>
<linearGradient id="paint0_linear_4741_2371" x1="62.8325" y1="0" x2="62.8325" y2="125.665" gradientUnits="userSpaceOnUse">
<stop stop-color="#AFC1DC"/>
<stop offset="1" stop-color="#E2E5ED"/>
</linearGradient>
</defs>
</svg>