<svg width="126" height="126" viewBox="0 0 126 126" fill="none" xmlns="http://www.w3.org/2000/svg">
<circle cx="62.8325" cy="62.8325" r="62.8325" fill="url(#paint0_linear_4741_2363)"/>
<path fill-rule="evenodd" clip-rule="evenodd" d="M83 47C83 48.1046 82.1046 49 81 49H77V53C77 54.1046 76.1046 55 75 55H71V59C71 60.1046 70.1046 61 69 61H57C55.8954 61 55 60.1046 55 59V55H51C49.8954 55 49 54.1046 49 53V49H45C43.8954 49 43 48.1046 43 47C43 45.8954 43.8954 45 45 45H49V41C49 39.8954 49.8954 39 51 39H55V35C55 33.8954 55.8954 33 57 33H69C70.1046 33 71 33.8954 71 35V39H75C76.1046 39 77 39.8954 77 41V45H81C82.1046 45 83 45.8954 83 47ZM67 37H59V57H67V37Z" fill="#577CFF"/>
<path d="M51 65C52.1046 65 53 65.8954 53 67V81C53 84.3137 55.6863 87 59 87H67C70.3137 87 73 84.3137 73 81V67C73 65.8954 73.8954 65 75 65C76.1046 65 77 65.8954 77 67V81C77 86.5228 72.5228 91 67 91H59C53.4772 91 49 86.5228 49 81V67C49 65.8954 49.8954 65 51 65Z" fill="#577CFF"/>
<defs>
<linearGradient id="paint0_linear_4741_2363" x1="62.8325" y1="0" x2="62.8325" y2="125.665" gradientUnits="userSpaceOnUse">
<stop stop-color="#AFC1DC"/>
<stop offset="1" stop-color="#E2E5ED"/>
</linearGradient>
</defs>
</svg>