<svg width="126" height="126" viewBox="0 0 126 126" fill="none" xmlns="http://www.w3.org/2000/svg">
<circle cx="62.8325" cy="62.8325" r="62.8325" fill="url(#paint0_linear_4741_2367)"/>
<path fill-rule="evenodd" clip-rule="evenodd" d="M63 35C74.0457 35 83 43.9543 83 55C83 66.0457 74.0457 75 63 75C51.9543 75 43 66.0457 43 55C43 43.9543 51.9543 35 63 35ZM63 41C55.268 41 49 47.268 49 55C49 62.732 55.268 69 63 69C70.732 69 77 62.732 77 55C77 47.268 70.732 41 63 41Z" fill="#577CFF"/>
<path d="M59 51C59 49.8954 59.8954 49 61 49H65C66.1046 49 67 49.8954 67 51V59H71C72.1046 59 73 59.8954 73 61V65C73 66.1046 72.1046 67 71 67H67V75C67 76.1046 66.1046 77 65 77H61C59.8954 77 59 76.1046 59 75V67H55C53.8954 67 53 66.1046 53 65V61C53 59.8954 53.8954 59 55 59H59V51Z" fill="#577CFF"/>
<path d="M57 83C57 81.8954 57.8954 81 59 81H67C68.1046 81 69 81.8954 69 83C69 84.1046 68.1046 85 67 85H59C57.8954 85 57 84.1046 57 83Z" fill="#577CFF"/>
<defs>
<linearGradient id="paint0_linear_4741_2367" x1="62.8325" y1="0" x2="62.8325" y2="125.665" gradientUnits="userSpaceOnUse">
<stop stop-color="#AFC1DC"/>
<stop offset="1" stop-color="#E2E5ED"/>
</linearGradient>
</defs>
</svg>